<?xml version="1.0" encoding="utf-8" ?>
<svg baseProfile="full" height="880px" version="1.1" width="1400px" xmlns="http://www.w3.org/2000/svg" xmlns:ev="http://www.w3.org/2001/xml-events" xmlns:xlink="http://www.w3.org/1999/xlink"><defs /><rect fill="#121212" height="880" width="1400" x="0" y="0" /><rect fill="#2a2a3a" height="80" rx="5" stroke="#556" stroke-width="1" width="220" x="140" y="82" /><text fill="#eee" font-size="11" font-weight="bold" style="font-family: 'Courier New', monospace;" text-anchor="middle" x="250" y="98">BIG EASY DRV L</text><line stroke="#445" stroke-width="0.5" x1="140" x2="360" y1="106" y2="106" /><text fill="#4488ff" font-size="7.5" style="font-family: 'Courier New', monospace;" text-anchor="start" x="148" y="124">STEP</text><text fill="#4488ff" font-size="7.5" style="font-family: 'Courier New', monospace;" text-anchor="start" x="148" y="141">DIR</text><text fill="#ff5555" font-size="7.5" style="font-family: 'Courier New', monospace;" text-anchor="start" x="148" y="154">5V</text><text fill="#777777" font-size="7.5" style="font-family: 'Courier New', monospace;" text-anchor="start" x="148" y="162">GND</text><rect fill="#2a2a3a" height="80" rx="5" stroke="#556" stroke-width="1" width="220" x="140" y="192" /><text fill="#eee" font-size="11" font-weight="bold" style="font-family: 'Courier New', monospace;" text-anchor="middle" x="250" y="208">BIG EASY DRV R</text><line stroke="#445" stroke-width="0.5" x1="140" x2="360" y1="216" y2="216" /><text fill="#4488ff" font-size="7.5" style="font-family: 'Courier New', monospace;" text-anchor="start" x="148" y="234">STEP</text><text fill="#4488ff" font-size="7.5" style="font-family: 'Courier New', monospace;" text-anchor="start" x="148" y="251">DIR</text><text fill="#ff5555" font-size="7.5" style="font-family: 'Courier New', monospace;" text-anchor="start" x="148" y="264">5V</text><text fill="#777777" font-size="7.5" style="font-family: 'Courier New', monospace;" text-anchor="start" x="148" y="272">GND</text><rect fill="#2a2a3a" height="100" rx="5" stroke="#556" stroke-width="1" width="220" x="140" y="302" /><text fill="#eee" font-size="11" font-weight="bold" style="font-family: 'Courier New', monospace;" text-anchor="middle" x="250" y="318">DFPLAYER MINI</text><line stroke="#445" stroke-width="0.5" x1="140" x2="360" y1="326" y2="326" /><text fill="#ff8800" font-size="7.5" style="font-family: 'Courier New', monospace;" text-anchor="start" x="148" y="341">RX (ESP TX2)</text><text fill="#ff8800" font-size="7.5" style="font-family: 'Courier New', monospace;" text-anchor="start" x="148" y="358">TX (ESP RX2)</text><text fill="#ff5555" font-size="7.5" style="font-family: 'Courier New', monospace;" text-anchor="start" x="148" y="376">5V</text><text fill="#777777" font-size="7.5" style="font-family: 'Courier New', monospace;" text-anchor="start" x="148" y="390">GND</text><rect fill="#2a2a3a" height="95" rx="5" stroke="#556" stroke-width="1" width="220" x="140" y="432" /><text fill="#eee" font-size="11" font-weight="bold" style="font-family: 'Courier New', monospace;" text-anchor="middle" x="250" y="448">MAXBOTIX EZ1 ×3</text><line stroke="#445" stroke-width="0.5" x1="140" x2="360" y1="456" y2="456" /><text fill="#44cc44" font-size="7.5" style="font-family: 'Courier New', monospace;" text-anchor="start" x="148" y="466">PWM — R</text><text fill="#44cc44" font-size="7.5" style="font-family: 'Courier New', monospace;" text-anchor="start" x="148" y="480">PWM — C</text><text fill="#44cc44" font-size="7.5" style="font-family: 'Courier New', monospace;" text-anchor="start" x="148" y="494">PWM — L</text><text fill="#44cc44" font-size="7.5" style="font-family: 'Courier New', monospace;" text-anchor="start" x="148" y="508">TRIG</text><text fill="#ff5555" font-size="7.5" style="font-family: 'Courier New', monospace;" text-anchor="start" x="148" y="522">5V / GND</text><rect fill="#2a2a3a" height="70" rx="5" stroke="#556" stroke-width="1" width="220" x="140" y="557" /><text fill="#eee" font-size="11" font-weight="bold" style="font-family: 'Courier New', monospace;" text-anchor="middle" x="250" y="573">WS2811 EYESTALK</text><text fill="#cc66ff" font-size="7.5" style="font-family: 'Courier New', monospace;" text-anchor="start" x="148" y="591">DATA</text><text fill="#ff5555" font-size="7.5" style="font-family: 'Courier New', monospace;" text-anchor="start" x="148" y="607">5V</text><text fill="#777777" font-size="7.5" style="font-family: 'Courier New', monospace;" text-anchor="start" x="148" y="619">GND</text><rect fill="#2a2a3a" height="80" rx="5" stroke="#556" stroke-width="1" width="220" x="140" y="657" /><text fill="#eee" font-size="11" font-weight="bold" style="font-family: 'Courier New', monospace;" text-anchor="middle" x="250" y="673">TIP120 + DOME LIGHTS</text><line stroke="#445" stroke-width="0.5" x1="140" x2="360" y1="681" y2="681" /><text fill="#ff8800" font-size="7.5" style="font-family: 'Courier New', monospace;" text-anchor="start" x="148" y="693">Base ← 1kΩ ← DFPlayer SPK−</text><text fill="#ff5555" font-size="7.5" style="font-family: 'Courier New', monospace;" text-anchor="start" x="148" y="709">Collector → dome+</text><text fill="#777777" font-size="7.5" style="font-family: 'Courier New', monospace;" text-anchor="start" x="148" y="723">Emitter → GND</text><rect fill="#181828" height="690" rx="5" stroke="#556" stroke-width="1" width="80" x="30" y="77" /><text fill="#eee" font-size="11" font-weight="bold" style="font-family: 'Courier New', monospace;" text-anchor="middle" x="70" y="93">VOEDING</text><line stroke="#445" stroke-width="0.5" x1="30" x2="110" y1="101" y2="101" /><path d="M110,92 L110,762" style="stroke:#ff5555;stroke-width:2.5;fill:none;" /><path d="M110,117 L110,762" style="stroke:#777777;stroke-width:2.5;fill:none;" /><text fill="#ff5555" font-size="9" style="font-family: 'Courier New', monospace;" text-anchor="start" x="115" y="82">5V ┐</text><text fill="#777777" font-size="9" style="font-family: 'Courier New', monospace;" text-anchor="start" x="115" y="105">GND ┐</text><text fill="#ff5555" font-size="8" style="font-family: 'Courier New', monospace;" text-anchor="start" x="35" y="749">12V → Big Easy Drv</text><path d="M110,150 L360,150" style="stroke:#ff5555;stroke-width:1.0;fill:none;" /><path d="M110,158 L360,158" style="stroke:#777777;stroke-width:1.0;fill:none;" /><path d="M110,260 L360,260" style="stroke:#ff5555;stroke-width:1.0;fill:none;" /><path d="M110,268 L360,268" style="stroke:#777777;stroke-width:1.0;fill:none;" /><path d="M110,372 L360,372" style="stroke:#ff5555;stroke-width:1.0;fill:none;" /><path d="M110,386 L360,386" style="stroke:#777777;stroke-width:1.0;fill:none;" /><path d="M110,518 L360,518" style="stroke:#ff5555;stroke-width:1.0;fill:none;" /><path d="M110,603 L360,603" style="stroke:#ff5555;stroke-width:1.0;fill:none;" /><path d="M110,615 L360,615" style="stroke:#777777;stroke-width:1.0;fill:none;" /><rect fill="#142b20" height="690" rx="5" stroke="#556" stroke-width="1" width="210" x="930" y="77" /><text fill="#eee" font-size="11" font-weight="bold" style="font-family: 'Courier New', monospace;" text-anchor="middle" x="1035" y="93">ESP32-WROOM-32U</text><line stroke="#445" stroke-width="0.5" x1="930" x2="1140" y1="101" y2="101" /><circle cx="930" cy="120" fill="#4488ff" r="3.5" /><text fill="#4488ff" font-size="7" style="font-family: 'Courier New', monospace;" text-anchor="end" x="923" y="123">GPIO 25</text><path d="M360,120 L930,120" style="stroke:#4488ff;stroke-width:1.5;fill:none;" /><text fill="#4488ff" font-size="7" style="font-family: 'Courier New', monospace;" text-anchor="middle" x="645" y="115">GPIO 25</text><circle cx="930" cy="137" fill="#4488ff" r="3.5" /><text fill="#4488ff" font-size="7" style="font-family: 'Courier New', monospace;" text-anchor="end" x="923" y="140">GPIO 26</text><path d="M360,137 L930,137" style="stroke:#4488ff;stroke-width:1.5;fill:none;" /><text fill="#4488ff" font-size="7" style="font-family: 'Courier New', monospace;" text-anchor="middle" x="645" y="132">GPIO 26</text><circle cx="930" cy="150" fill="#ff5555" r="3.5" /><text fill="#ff5555" font-size="7" style="font-family: 'Courier New', monospace;" text-anchor="end" x="923" y="153">5V</text><path d="M360,150 L930,150" style="stroke:#ff5555;stroke-width:1.5;fill:none;" /><text fill="#ff5555" font-size="7" style="font-family: 'Courier New', monospace;" text-anchor="middle" x="645" y="145">5V</text><circle cx="930" cy="158" fill="#777777" r="3.5" /><text fill="#777777" font-size="7" style="font-family: 'Courier New', monospace;" text-anchor="end" x="923" y="161">GND</text><path d="M360,158 L930,158" style="stroke:#777777;stroke-width:1.5;fill:none;" /><text fill="#777777" font-size="7" style="font-family: 'Courier New', monospace;" text-anchor="middle" x="645" y="153">GND</text><circle cx="930" cy="230" fill="#4488ff" r="3.5" /><text fill="#4488ff" font-size="7" style="font-family: 'Courier New', monospace;" text-anchor="end" x="923" y="233">GPIO 27</text><path d="M360,230 L930,230" style="stroke:#4488ff;stroke-width:1.5;fill:none;" /><text fill="#4488ff" font-size="7" style="font-family: 'Courier New', monospace;" text-anchor="middle" x="645" y="225">GPIO 27</text><circle cx="930" cy="247" fill="#4488ff" r="3.5" /><text fill="#4488ff" font-size="7" style="font-family: 'Courier New', monospace;" text-anchor="end" x="923" y="250">GPIO 33</text><path d="M360,247 L930,247" style="stroke:#4488ff;stroke-width:1.5;fill:none;" /><text fill="#4488ff" font-size="7" style="font-family: 'Courier New', monospace;" text-anchor="middle" x="645" y="242">GPIO 33!14→33!</text><circle cx="930" cy="260" fill="#ff5555" r="3.5" /><text fill="#ff5555" font-size="7" style="font-family: 'Courier New', monospace;" text-anchor="end" x="923" y="263">5V</text><path d="M360,260 L930,260" style="stroke:#ff5555;stroke-width:1.5;fill:none;" /><text fill="#ff5555" font-size="7" style="font-family: 'Courier New', monospace;" text-anchor="middle" x="645" y="255">5V</text><circle cx="930" cy="268" fill="#777777" r="3.5" /><text fill="#777777" font-size="7" style="font-family: 'Courier New', monospace;" text-anchor="end" x="923" y="271">GND</text><path d="M360,268 L930,268" style="stroke:#777777;stroke-width:1.5;fill:none;" /><text fill="#777777" font-size="7" style="font-family: 'Courier New', monospace;" text-anchor="middle" x="645" y="263">GND</text><circle cx="930" cy="337" fill="#ff8800" r="3.5" /><text fill="#ff8800" font-size="7" style="font-family: 'Courier New', monospace;" text-anchor="end" x="923" y="340">GPIO 17</text><path d="M360,337 L930,337" style="stroke:#ff8800;stroke-width:1.5;fill:none;" /><text fill="#ff8800" font-size="7" style="font-family: 'Courier New', monospace;" text-anchor="middle" x="645" y="332">GPIO 17</text><circle cx="930" cy="354" fill="#ff8800" r="3.5" /><text fill="#ff8800" font-size="7" style="font-family: 'Courier New', monospace;" text-anchor="end" x="923" y="357">GPIO 16</text><path d="M360,354 L930,354" style="stroke:#ff8800;stroke-width:1.5;fill:none;" /><text fill="#ff8800" font-size="7" style="font-family: 'Courier New', monospace;" text-anchor="middle" x="645" y="349">GPIO 16</text><circle cx="930" cy="372" fill="#ff5555" r="3.5" /><text fill="#ff5555" font-size="7" style="font-family: 'Courier New', monospace;" text-anchor="end" x="923" y="375">5V</text><path d="M360,372 L930,372" style="stroke:#ff5555;stroke-width:1.5;fill:none;" /><text fill="#ff5555" font-size="7" style="font-family: 'Courier New', monospace;" text-anchor="middle" x="645" y="367">5V</text><circle cx="930" cy="386" fill="#777777" r="3.5" /><text fill="#777777" font-size="7" style="font-family: 'Courier New', monospace;" text-anchor="end" x="923" y="389">GND</text><path d="M360,386 L930,386" style="stroke:#777777;stroke-width:1.5;fill:none;" /><text fill="#777777" font-size="7" style="font-family: 'Courier New', monospace;" text-anchor="middle" x="645" y="381">GND</text><circle cx="930" cy="462" fill="#44cc44" r="3.5" /><text fill="#44cc44" font-size="7" style="font-family: 'Courier New', monospace;" text-anchor="end" x="923" y="465">GPIO 34</text><path d="M360,462 L930,462" style="stroke:#44cc44;stroke-width:1.5;fill:none;" /><text fill="#44cc44" font-size="7" style="font-family: 'Courier New', monospace;" text-anchor="middle" x="645" y="457">GPIO 34</text><circle cx="930" cy="476" fill="#44cc44" r="3.5" /><text fill="#44cc44" font-size="7" style="font-family: 'Courier New', monospace;" text-anchor="end" x="923" y="479">GPIO 35</text><path d="M360,476 L930,476" style="stroke:#44cc44;stroke-width:1.5;fill:none;" /><text fill="#44cc44" font-size="7" style="font-family: 'Courier New', monospace;" text-anchor="middle" x="645" y="471">GPIO 35</text><circle cx="930" cy="490" fill="#44cc44" r="3.5" /><text fill="#44cc44" font-size="7" style="font-family: 'Courier New', monospace;" text-anchor="end" x="923" y="493">GPIO 36</text><path d="M360,490 L930,490" style="stroke:#44cc44;stroke-width:1.5;fill:none;" /><text fill="#44cc44" font-size="7" style="font-family: 'Courier New', monospace;" text-anchor="middle" x="645" y="485">GPIO 36</text><circle cx="930" cy="504" fill="#44cc44" r="3.5" /><text fill="#44cc44" font-size="7" style="font-family: 'Courier New', monospace;" text-anchor="end" x="923" y="507">GPIO 32</text><path d="M360,504 L930,504" style="stroke:#44cc44;stroke-width:1.5;fill:none;" /><text fill="#44cc44" font-size="7" style="font-family: 'Courier New', monospace;" text-anchor="middle" x="645" y="499">GPIO 32</text><circle cx="930" cy="518" fill="#ff5555" r="3.5" /><text fill="#ff5555" font-size="7" style="font-family: 'Courier New', monospace;" text-anchor="end" x="923" y="521">5V / GND</text><path d="M360,518 L930,518" style="stroke:#ff5555;stroke-width:1.5;fill:none;" /><text fill="#ff5555" font-size="7" style="font-family: 'Courier New', monospace;" text-anchor="middle" x="645" y="513">5V / GND</text><circle cx="930" cy="587" fill="#cc66ff" r="3.5" /><text fill="#cc66ff" font-size="7" style="font-family: 'Courier New', monospace;" text-anchor="end" x="923" y="590">GPIO 4</text><path d="M360,587 L930,587" style="stroke:#cc66ff;stroke-width:1.5;fill:none;" /><text fill="#cc66ff" font-size="7" style="font-family: 'Courier New', monospace;" text-anchor="middle" x="645" y="582">GPIO 4</text><circle cx="930" cy="603" fill="#ff5555" r="3.5" /><text fill="#ff5555" font-size="7" style="font-family: 'Courier New', monospace;" text-anchor="end" x="923" y="606">5V</text><path d="M360,603 L930,603" style="stroke:#ff5555;stroke-width:1.5;fill:none;" /><text fill="#ff5555" font-size="7" style="font-family: 'Courier New', monospace;" text-anchor="middle" x="645" y="598">5V</text><circle cx="930" cy="615" fill="#777777" r="3.5" /><text fill="#777777" font-size="7" style="font-family: 'Courier New', monospace;" text-anchor="end" x="923" y="618">GND</text><path d="M360,615 L930,615" style="stroke:#777777;stroke-width:1.5;fill:none;" /><text fill="#777777" font-size="7" style="font-family: 'Courier New', monospace;" text-anchor="middle" x="645" y="610">GND</text><circle cx="1140" cy="112" fill="#555" r="3.5" /><text fill="#555" font-size="7" style="font-family: 'Courier New', monospace;" text-anchor="start" x="1150" y="115">GND</text><circle cx="1140" cy="129" fill="#555" r="3.5" /><text fill="#555" font-size="7" style="font-family: 'Courier New', monospace;" text-anchor="start" x="1150" y="132">3V3</text><circle cx="1140" cy="146" fill="#555" r="3.5" /><text fill="#555" font-size="7" style="font-family: 'Courier New', monospace;" text-anchor="start" x="1150" y="149">EN</text><circle cx="1140" cy="163" fill="#555" r="3.5" /><text fill="#555" font-size="7" style="font-family: 'Courier New', monospace;" text-anchor="start" x="1150" y="166">23</text><circle cx="1140" cy="180" fill="#555" r="3.5" /><text fill="#555" font-size="7" style="font-family: 'Courier New', monospace;" text-anchor="start" x="1150" y="183">22</text><circle cx="1140" cy="197" fill="#555" r="3.5" /><text fill="#555" font-size="7" style="font-family: 'Courier New', monospace;" text-anchor="start" x="1150" y="200">TX0</text><circle cx="1140" cy="214" fill="#555" r="3.5" /><text fill="#555" font-size="7" style="font-family: 'Courier New', monospace;" text-anchor="start" x="1150" y="217">RX0</text><circle cx="1140" cy="231" fill="#555" r="3.5" /><text fill="#555" font-size="7" style="font-family: 'Courier New', monospace;" text-anchor="start" x="1150" y="234">21</text><circle cx="1140" cy="248" fill="#555" r="3.5" /><text fill="#555" font-size="7" style="font-family: 'Courier New', monospace;" text-anchor="start" x="1150" y="251">GND</text><circle cx="1140" cy="265" fill="#555" r="3.5" /><text fill="#555" font-size="7" style="font-family: 'Courier New', monospace;" text-anchor="start" x="1150" y="268">19</text><circle cx="1140" cy="282" fill="#555" r="3.5" /><text fill="#555" font-size="7" style="font-family: 'Courier New', monospace;" text-anchor="start" x="1150" y="285">18</text><circle cx="1140" cy="299" fill="#555" r="3.5" /><text fill="#555" font-size="7" style="font-family: 'Courier New', monospace;" text-anchor="start" x="1150" y="302">5</text><circle cx="1140" cy="316" fill="#555" r="3.5" /><text fill="#555" font-size="7" style="font-family: 'Courier New', monospace;" text-anchor="start" x="1150" y="319">14 (x)</text><circle cx="1140" cy="333" fill="#555" r="3.5" /><text fill="#555" font-size="7" style="font-family: 'Courier New', monospace;" text-anchor="start" x="1150" y="336">12 (x)</text><circle cx="1140" cy="350" fill="#555" r="3.5" /><text fill="#555" font-size="7" style="font-family: 'Courier New', monospace;" text-anchor="start" x="1150" y="353">GND</text><path d="M380,337 L380,689" style="stroke:#ff8800;stroke-width:1.0;fill:none;stroke-dasharray:4,3;" /><path d="M360,337 L380,337" style="stroke:#ff8800;stroke-width:1.0;fill:none;" /><path d="M360,689 L380,689" style="stroke:#ff8800;stroke-width:1.0;fill:none;" /><text fill="#ff8800" font-size="7" style="font-family: 'Courier New', monospace;" text-anchor="start" x="385" y="513">DFPlayer SPK− → 1kΩ → TIP Base</text><circle cx="38" cy="845" fill="#ff5555" r="3.5" /><text fill="#ff5555" font-size="7.5" style="font-family: 'Courier New', monospace;" text-anchor="start" x="46" y="848">ROOD = 5V / voeding</text><circle cx="238" cy="845" fill="#777777" r="3.5" /><text fill="#777777" font-size="7.5" style="font-family: 'Courier New', monospace;" text-anchor="start" x="246" y="848">GRIJS = GND</text><circle cx="438" cy="845" fill="#4488ff" r="3.5" /><text fill="#4488ff" font-size="7.5" style="font-family: 'Courier New', monospace;" text-anchor="start" x="446" y="848">BLAUW = stappenmotor</text><circle cx="638" cy="845" fill="#44cc44" r="3.5" /><text fill="#44cc44" font-size="7.5" style="font-family: 'Courier New', monospace;" text-anchor="start" x="646" y="848">GROEN = ultrasoon</text><circle cx="838" cy="845" fill="#ff8800" r="3.5" /><text fill="#ff8800" font-size="7.5" style="font-family: 'Courier New', monospace;" text-anchor="start" x="846" y="848">ORANJE = audio</text><circle cx="1038" cy="845" fill="#cc66ff" r="3.5" /><text fill="#cc66ff" font-size="7.5" style="font-family: 'Courier New', monospace;" text-anchor="start" x="1046" y="848">PAARS = LED / WS2811</text><text fill="#4488ff" font-size="8" style="font-family: 'Courier New', monospace;" text-anchor="middle" x="700" y="825">GPIO 33 i.p.v. 14 (oude pin trok JTAG hoog bij boot → verplaatst)</text><text fill="#777777" font-size="8" style="font-family: 'Courier New', monospace;" text-anchor="middle" x="700" y="812">I2C-bus tussen boards: VERVALLEN  ·  Alle componenten delen common GND</text><rect fill="none" height="15" rx="3" stroke="#ff6600" stroke-width="1" width="68" x="860" y="239" /><text fill="#ff6600" font-size="6.5" style="font-family: 'Courier New', monospace;" text-anchor="middle" x="894" y="236">▲ gewijzigd</text></svg>